<svg width="320" height="140" viewBox="0 0 320 140"
     fill="none" xmlns="http://www.w3.org/2000/svg">
  <style>
    .title { font: 600 16px system-ui, -apple-system, 'Segoe UI', sans-serif; fill: #58a6ff; }
    .stat  { font: 400 13px system-ui, -apple-system, 'Segoe UI', sans-serif; fill: #768390; }
    .val   { font: 600 13px system-ui, -apple-system, 'Segoe UI', sans-serif; fill: #58a6ff; }
  </style>
  <text x="0" y="20" class="title">Most used languages</text>
  <rect x="0.0" y="34" width="264.4" height="8" rx="2" fill="#3572A5"/>
  <rect x="264.4" y="34" width="28.8" height="8" rx="2" fill="#5a5aad"/>
  <rect x="293.2" y="34" width="6.4" height="8" rx="2" fill="#dea584"/>
  <rect x="299.5" y="34" width="0.3" height="8" rx="2" fill="#89e051"/>
  <rect x="299.8" y="34" width="0.1" height="8" rx="2" fill="#f1e05a"/>
  <rect x="300.0" y="34" width="0.0" height="8" rx="2" fill="#955252"/>
  <circle cx="5" cy="64" r="5" fill="#3572A5"/><text x="16" y="68" class="stat">Python 88.1%</text>
  <circle cx="160" cy="64" r="5" fill="#5a5aad"/><text x="171" y="68" class="stat">Lua 9.6%</text>
  <circle cx="5" cy="86" r="5" fill="#dea584"/><text x="16" y="90" class="stat">Rust 2.1%</text>
  <circle cx="160" cy="86" r="5" fill="#89e051"/><text x="171" y="90" class="stat">Shell 0.1%</text>
  <circle cx="5" cy="108" r="5" fill="#f1e05a"/><text x="16" y="112" class="stat">JavaScript 0.0%</text>
  <circle cx="160" cy="108" r="5" fill="#955252"/><text x="171" y="112" class="stat">Ruby 0.0%</text>
</svg>
